<?xml version="1.0" encoding="utf-8"?>

<!DOCTYPE svg PUBLIC "-//W3C//DTD SVG 1.1//EN" "http://www.w3.org/Graphics/SVG/1.1/DTD/svg11.dtd">
<!-- Uploaded to: SVG Repo, www.svgrepo.com, Generator: SVG Repo Mixer Tools -->
<svg height="50" width="50" version="1.1" id="_x32_" xmlns="http://www.w3.org/2000/svg" xmlns:xlink="http://www.w3.org/1999/xlink"
	 viewBox="0 0 512 512"  xml:space="preserve">
<style type="text/css">
	.st0{fill:#6C707E;}
</style>
<g>
	<path class="st0" d="M268.726,393.156c-2.219,1.805-4.43,3.211-6.68,4.282c-1.508,0.164-3.039,0.289-4.578,0.367v-17.813
		c-3.657-3.007-7.36-6.125-11.07-9.328v27.141c-1.524-0.078-3.07-0.203-4.578-0.367c-2.234-1.07-4.446-2.477-6.656-4.282
		c-7.211-5.859-13.954-15.75-19.118-28.5h23.539c-4.016-3.578-8.031-7.273-12.047-11.07h-15.374
		c-1.836-6.094-3.313-12.68-4.438-19.586c-4.359-4.523-8.618-9.054-12.734-13.586c0.922,11.781,2.828,22.969,5.664,33.172h-28.297
		c-7.93-12.797-12.836-27.633-13.766-43.578h27.164c-3.203-3.711-6.328-7.398-9.352-11.07h-17.812
		c0.382-6.539,1.461-12.867,3.125-18.961c-3.774-5.133-7.289-10.187-10.554-15.141c-4.836,12.297-7.516,25.649-7.516,39.641
		c0,59.797,48.477,108.281,108.297,108.281c13.985,0,27.352-2.687,39.618-7.515c-6.586-4.344-13.383-9.156-20.282-14.383
		C270.437,391.672,269.578,392.454,268.726,393.156z M185.812,370.602c-1.906-1.89-3.71-3.89-5.422-5.946h23.851
		c1.782,4.852,3.719,9.462,5.914,13.711c2.578,4.985,5.43,9.516,8.546,13.531C206.25,387.164,195.078,379.859,185.812,370.602z"/>
	<path class="st0" d="M181.226,243.359c1.476-1.718,2.969-3.406,4.586-5.007c9.282-9.282,20.485-16.594,32.961-21.329
		c-5.797,7.438-10.671,16.688-14.546,27.266h-22.414c2.367,3.609,4.922,7.304,7.633,11.062h11.226
		c-1.031,3.671-1.89,7.5-2.695,11.406c2.985,3.813,6.078,7.672,9.321,11.563c1.164-8.141,2.797-15.883,4.922-22.969h34.18v43.586
		h-21.039c3.438,3.695,6.922,7.398,10.523,11.07h10.516v10.531c3.671,3.578,7.382,7.086,11.07,10.516v-21.047h40.922
		c-0.446,15.906-2.867,30.734-6.742,43.578h-8.102c5.321,4.281,10.57,8.328,15.719,12.078c0.117-0.343,0.273-0.656,0.398-1.008
		h23.828c-1.726,2.055-3.531,4.055-5.422,5.946c-1.609,1.61-3.289,3.125-5.007,4.594c4.546,2.954,8.961,5.641,13.179,8.008
		c20.914-19.742,33.993-47.695,33.993-78.726c-0.016-59.805-48.493-108.289-108.29-108.289c-31.046,0-59,13.07-78.726,33.976
		C175.586,234.398,178.281,238.813,181.226,243.359z M331.523,353.586h-28.328c3.656-13.172,5.867-27.914,6.297-43.578h35.781
		C344.343,325.954,339.437,340.79,331.523,353.586z M331.507,255.352c7.93,12.797,12.836,27.64,13.766,43.586h-35.812
		c-0.43-15.641-2.578-30.414-6.234-43.586H331.507z M318.07,238.352c1.891,1.89,3.696,3.874,5.406,5.938H299.64
		c-1.781-4.852-3.734-9.469-5.914-13.703c-2.578-4.985-5.446-9.508-8.562-13.531C297.617,221.79,308.789,229.102,318.07,238.352z
		 M257.469,211.133c1.538,0.094,3.07,0.219,4.594,0.375c2.234,1.062,4.445,2.469,6.664,4.282c7.203,5.859,13.93,15.75,19.11,28.5
		h-30.367V211.133z M257.469,255.352h34.234c3.875,12.843,6.258,27.703,6.727,43.586h-40.961V255.352z M235.164,215.79
		c2.21-1.813,4.422-3.219,6.656-4.282c1.508-0.172,3.031-0.282,4.578-0.375v33.157h-30.305c1.242-3.024,2.508-5.938,3.898-8.618
		C224.437,227.039,229.687,220.258,235.164,215.79z"/>
	<path class="st0" d="M150.398,242.321c14.687,26.359,40.148,58.953,72.445,91.266c32.29,32.289,64.891,57.75,91.25,72.437
		c7.718,4.298,14.906,7.665,21.546,10.024c6.641,2.343,12.688,3.71,18.383,3.734c2.859,0,5.656-0.367,8.336-1.258
		c2.664-0.898,5.218-2.39,7.274-4.453c2.078-2.078,3.57-4.625,4.469-7.297c0.906-2.687,1.266-5.484,1.266-8.344
		c-0.016-6.031-1.563-12.484-4.172-19.562c-2.242-6.046-5.352-12.578-9.164-19.515c-2.602,5.203-5.555,10.203-8.852,14.953
		c1.664,3.453,3.07,6.695,4.172,9.68c2.266,6.054,3.274,11.078,3.258,14.445c0,1.594-0.218,2.797-0.5,3.61
		c-0.273,0.813-0.562,1.234-0.906,1.586c-0.343,0.321-0.758,0.618-1.578,0.914c-0.805,0.266-2.008,0.477-3.602,0.477
		c-3.18,0.015-7.844-0.883-13.454-2.883c-5.594-1.992-12.133-5.031-19.304-9.015c-24.57-13.657-56.508-38.469-87.993-69.977
		c-31.484-31.477-56.32-63.414-69.976-87.992c-3.977-7.172-7.016-13.703-9.008-19.313c-2.008-5.594-2.898-10.25-2.883-13.438
		c0-1.594,0.203-2.797,0.485-3.602c0.289-0.82,0.578-1.226,0.906-1.57c0.359-0.351,0.773-0.64,1.594-0.922
		c0.805-0.266,2.008-0.492,3.602-0.492c3.367-0.023,8.39,0.992,14.438,3.242c3,1.109,6.258,2.515,9.726,4.195
		c4.75-3.297,9.742-6.242,14.946-8.867c-6.954-3.813-13.508-6.938-19.563-9.172c-7.07-2.61-13.523-4.141-19.546-4.164
		c-2.859,0.008-5.656,0.367-8.336,1.274c-2.68,0.89-5.234,2.39-7.289,4.469c-2.078,2.054-3.57,4.601-4.462,7.266
		c-0.898,2.687-1.258,5.484-1.273,8.343c0.015,5.703,1.39,11.75,3.742,18.391C142.726,227.414,146.102,234.602,150.398,242.321z"/>
	<path class="st0" d="M464,0H48C21.492,0,0,21.492,0,48v416c0,26.508,21.492,48,48,48h416c26.507,0,48-21.492,48-48V48
		C512,21.492,490.507,0,464,0z M444.664,35c10.492,0,19,8.508,19,19s-8.508,19-19,19c-10.493,0-19-8.508-19-19
		S434.171,35,444.664,35z M374.164,35c10.492,0,19,8.508,19,19s-8.508,19-19,19c-10.493,0-19-8.508-19-19S363.671,35,374.164,35z
		 M303.664,35c10.492,0,19,8.508,19,19s-8.508,19-19,19c-10.493,0-19-8.508-19-19S293.171,35,303.664,35z M472,464
		c0,4.406-3.586,8-8,8H48c-4.414,0-8-3.594-8-8V104h432V464z"/>
</g>
</svg>