<!DOCTYPE svg PUBLIC "-//W3C//DTD SVG 1.1//EN" "http://www.w3.org/Graphics/SVG/1.1/DTD/svg11.dtd">

<!-- Uploaded to: SVG Repo, www.svgrepo.com, Transformed by: SVG Repo Mixer Tools -->
<svg version="1.1" id="Icons" xmlns="http://www.w3.org/2000/svg" xmlns:xlink="http://www.w3.org/1999/xlink" viewBox="0 0 40 40" xml:space="preserve" width="40" height="40" fill="#000000">

<g id="SVGRepo_bgCarrier" stroke-width="0"/>

<g id="SVGRepo_tracerCarrier" stroke-linecap="round" stroke-linejoin="round" stroke="#CCCCCC" stroke-width="0.44800000000000006"/>

<g id="SVGRepo_iconCarrier"> <style type="text/css"> .st0{fill:none;stroke:#6C707E;stroke-width:2;stroke-linecap:round;stroke-linejoin:round;stroke-miterlimit:10;} </style> <path class="st0" d="M26,20c-1.1,0-2.1,0.4-3,1H18c-0.8-0.6-1.9-1-3-1c-2.8,0-5,2.2-5,5s2.2,5,5,5c1.1,0,2.1-0.4,3-1H23 c0.8,0.6,1.9,1,3,1c2.8,0,5-2.2,5-5S28.8,20,26,20z"/> <line class="st0" x1="15" y1="23" x2="15" y2="27"/> <line class="st0" x1="13" y1="25" x2="17" y2="25"/> <line class="st0" x1="27" y1="24" x2="27" y2="24"/> <line class="st0" x1="25" y1="26" x2="25" y2="26"/> <path class="st0" d="M10.7,27.6C5.1,26.1,1,21,1,15C1,7.8,6.8,2,14,2s13,5.8,13,13c0,1.8-0.4,3.5-1,5"/> <path class="st0" d="M10,24.7c-1.2-2.4-2-5.8-2-9.7c0-7.2,2.7-13,6-13s6,5.8,6,13c0,2.2-0.2,4.2-0.7,6"/> <line class="st0" x1="1" y1="15" x2="27" y2="15"/> </g>

</svg>