<?xml version="1.0" encoding="utf-8"?>
<!-- Uploaded to: SVG Repo, www.svgrepo.com, Generator: SVG Repo Mixer Tools -->
<svg fill="#CED0D6" width="50" height="50" viewBox="0 0 32 32" version="1.1" xmlns="http://www.w3.org/2000/svg">
<title>snail</title>
<path d="M1.221 28.025l0-0h-0zM29.977 6.142c-0.645 0-1.167 0.523-1.167 1.167 0 0.131 0.022 0.256 0.061 0.373-1.668 0.652-1.334 3.814-1.096 6.786-0.935 0.84-2.005 0.732-2.951-0.51-0.118-3.108-0.909-7.165 0.579-8.373-0.013 0.071-0.021 0.143-0.021 0.218 0 0.645 0.523 1.167 1.167 1.167s1.167-0.523 1.167-1.167c0-0.645-0.523-1.167-1.167-1.167-0.447 0-0.836 0.252-1.032 0.621-2.31 0.365-1.593 4.532-1.376 7.961-0.11 1.808-0.538 3.444-1.185 4.836-0.501-3.708-2.678-7.067-4.693-8.758-3.902-3.274-9.376-2.96-13.18 0.429s-3.976 9.618-0.608 13.39c0.531 0.529 1.141 0.941 1.8 1.24-2.423 0.999-4.281 2.333-5.055 3.669h20.072c6.113 0 8.38-6.077 7.17-12.98-0.206-2.8-0.624-5.931 0.567-7.054 0.212 0.294 0.557 0.486 0.948 0.486 0.645 0 1.167-0.523 1.167-1.167s-0.523-1.167-1.167-1.167z"></path>
</svg>