<?xml version="1.0" encoding="utf-8"?>

<!-- Uploaded to: SVG Repo, www.svgrepo.com, Generator: SVG Repo Mixer Tools -->
<svg width="50" height="50" viewBox="0 0 64 64" xmlns="http://www.w3.org/2000/svg" xmlns:xlink="http://www.w3.org/1999/xlink" aria-hidden="true" role="img" class="iconify iconify--emojione-monotone" preserveAspectRatio="xMidYMid meet">

<g fill-rule="evenodd">

<path d="M47.384 44.207c4.841-.655 8.772-4.719 8.776-9.125l-17.685 2.409c.093 4.382 4.079 7.366 8.909 6.716" fill="#CED0D6">

</path>

<path d="M29.634 38.7c-4.853.66-8.625 4.729-8.441 9.042l17.409-2.35c-.093-4.34-4.111-7.354-8.968-6.692" fill="#CED0D6">

</path>

<path d="M43.354 13.903a8.448 8.448 0 0 0-.162-.812l2.341.042l-2.765-3.192l1.924-2.669l-4.4-.462l-.506-4.037l-2.906 1.764L33.401 2l-.186 2.09a9.625 9.625 0 0 0-1.803-.187c-2.064 0-3.94.72-5.423 2.079c-3.274 3.005-4.437 7.943-4.438 11.26c0 .696.05 1.488.194 2.274C10.936 24.307 2 30.194 2 30.194V62l60-7.77V21.91c0-3.509-12.229-7.149-18.646-8.007M27.348 7.439c1.181-1.083 2.593-1.553 4.065-1.553c2.344 0 4.84 1.189 6.798 2.983c3.177 2.916 4.625 7.179 1.565 9.991c-2.615 2.4-7.181 3.457-10.679 3.457c-2.035 0-3.71-.358-4.429-1.018c-1.973-1.811-1.477-10.045 2.68-13.86m30.034 45.389L4 59.74v-6.95l53.388-7.036l-.006 7.074m.007-9.075L4 50.789v-5.994c1.376 2.89 4.714 4.633 8.488 4.123c4.783-.646 8.516-4.663 8.327-9.017L4 42.191v-1.367l53.396-6.841l-.007 9.77m.007-11.77L4 38.824v-6.892l53.4-7.023l-.004 7.074" fill="#CED0D6">

</path>

<path d="M28.448 17.74l.712.662l.712-.662l-.712-.661z" fill="#CED0D6">

</path>

<path d="M40.093 13.683l-.71-.662l-.712.662l.712.661z" fill="#CED0D6">

</path>

<path d="M36.691 14.344l-.712-.661l-.71.661l.71.662z" fill="#CED0D6">

</path>

<path d="M32.7 14.344l.71-.661l-.71-.662l-.713.662z" fill="#CED0D6">

</path>

<path d="M37.176 10.991l-.711-.661l-.712.661l.712.662z" fill="#CED0D6">

</path>

<path d="M35.098 8.153l-.712-.662l-.711.662l.711.662z" fill="#CED0D6">

</path>

<path d="M31.987 11.263l.712-.662l-.712-.662l-.711.662z" fill="#CED0D6">

</path>

<path d="M29.035 14.138l.711-.661l-.711-.663l-.713.663z" fill="#CED0D6">

</path>

<path d="M32.162 17.329l.711.661l.713-.661l-.713-.662z" fill="#CED0D6">

</path>

<path d="M38.838 17.434l-.712-.663l-.712.663l.712.661z" fill="#CED0D6">

</path>

<path d="M35.269 20.756l.71-.662l-.71-.662l-.711.662z" fill="#CED0D6">

</path>

<path d="M29.872 20.756l.712.661l.712-.661l-.712-.662z" fill="#CED0D6">

</path>

<path d="M25.436 19.432l.712.662l.711-.662l-.711-.661z" fill="#CED0D6">

</path>

<path d="M26.373 16.005l-.711-.661l-.71.661l.71.662z" fill="#CED0D6">

</path>

<path d="M28.563 9.477l-.713-.662l-.712.662l.712.662z" fill="#CED0D6">

</path>

<path d="M26.859 12.507l-.711-.661l-.711.661l.711.662z" fill="#CED0D6">

</path>

<path d="M31.5 7.306l-.712-.661l-.711.661l.711.662z" fill="#CED0D6">

</path>

</g>

</svg>